# xmcd
#
# Track frame offsets: 
#        150
#        14625
#        29100
#        39225
#        50475
#        71850
#        90725
#        102245
#        114150
#        124895
#        141060
#
# Disc length: 2033 seconds
#
# Revision: 0
# Processed by: cddbd v1.5.1PL0 Copyright (c) Steve Scherf et al.
# Submitted via: ExactAudioCopy v0.95a5
#
DISCID=9a07ef0b
DTITLE=Severin and Bailey - Too Many Miles
DYEAR=2000
DGENRE=Bluegrass
TTITLE0=I Don't Worry About You Anymore
TTITLE1=Sitting Alone In The Moonlight
TTITLE2=Cold Wind
TTITLE3=Faultline
TTITLE4=Too Many Miles
TTITLE5=Northern Rail
TTITLE6=Wheel Hoss
TTITLE7=Wrong Road Again
TTITLE8=Five O'clock Cafe
TTITLE9=Just Like The Weather
TTITLE10=Roanoke
EXTD=
EXTT0=
EXTT1=
EXTT2=
EXTT3=
EXTT4=
EXTT5=
EXTT6=
EXTT7=
EXTT8=
EXTT9=
EXTT10=
PLAYORDER=
